<svg xmlns="http://www.w3.org/2000/svg" xmlns:xlink="http://www.w3.org/1999/xlink" width="172" zoomAndPan="magnify" viewBox="0 0 129 30.000001" height="40" preserveAspectRatio="xMidYMid meet" version="1.0"><defs><g/><clipPath id="687e4b946f"><path d="M 4.984375 1.453125 L 31.839844 1.453125 L 31.839844 28.304688 L 4.984375 28.304688 Z M 4.984375 1.453125 " clip-rule="nonzero"/></clipPath></defs><path fill="#d9d9d9" d="M 18.859375 15.492188 L 18.859375 18.578125 C 19.273438 18.492188 19.566406 18.328125 19.816406 18.035156 C 20.066406 17.742188 20.191406 17.410156 20.191406 16.992188 C 20.191406 16.617188 20.066406 16.328125 19.859375 16.078125 C 19.691406 15.828125 19.359375 15.660156 18.859375 15.492188 Z M 18.859375 15.492188 " fill-opacity="1" fill-rule="nonzero"/><path fill="#d9d9d9" d="M 16.984375 10.703125 C 16.816406 10.953125 16.691406 11.242188 16.691406 11.535156 C 16.691406 11.828125 16.773438 12.078125 16.941406 12.328125 C 17.109375 12.578125 17.359375 12.742188 17.734375 12.910156 L 17.734375 10.160156 C 17.398438 10.242188 17.148438 10.453125 16.984375 10.703125 Z M 16.984375 10.703125 " fill-opacity="1" fill-rule="nonzero"/><g clip-path="url(#687e4b946f)"><path fill="#d9d9d9" d="M 18.273438 1.453125 C 10.941406 1.453125 4.984375 7.410156 4.984375 14.742188 C 4.984375 22.074219 10.941406 28.035156 18.273438 28.035156 C 25.609375 28.035156 31.566406 22.074219 31.566406 14.742188 C 31.566406 7.410156 25.609375 1.453125 18.273438 1.453125 Z M 21.273438 19.160156 C 20.691406 19.824219 19.898438 20.199219 18.859375 20.367188 L 18.859375 21.867188 L 17.691406 21.867188 L 17.691406 20.410156 C 16.773438 20.285156 16.023438 19.949219 15.441406 19.367188 C 14.859375 18.785156 14.484375 17.992188 14.359375 16.953125 L 16.441406 16.742188 C 16.523438 17.160156 16.691406 17.535156 16.898438 17.828125 C 17.148438 18.117188 17.398438 18.367188 17.691406 18.492188 L 17.691406 15.160156 C 16.648438 14.867188 15.898438 14.410156 15.398438 13.828125 C 14.898438 13.242188 14.691406 12.492188 14.691406 11.617188 C 14.691406 10.742188 14.984375 10.035156 15.523438 9.410156 C 16.066406 8.828125 16.816406 8.492188 17.734375 8.367188 L 17.734375 7.578125 L 18.898438 7.578125 L 18.898438 8.367188 C 19.734375 8.453125 20.398438 8.742188 20.898438 9.242188 C 21.398438 9.703125 21.734375 10.367188 21.859375 11.160156 L 19.859375 11.410156 C 19.734375 10.785156 19.398438 10.367188 18.898438 10.117188 L 18.898438 13.242188 C 20.191406 13.578125 21.023438 14.035156 21.484375 14.578125 C 21.941406 15.117188 22.191406 15.828125 22.191406 16.703125 C 22.148438 17.703125 21.859375 18.492188 21.273438 19.160156 Z M 21.273438 19.160156 " fill-opacity="1" fill-rule="nonzero"/></g><g fill="#d9d9d9" fill-opacity="1"><g transform="translate(34.447602, 21.048389)"><g><path d="M 2.484375 -12.578125 C 2.140625 -12.578125 1.851562 -12.691406 1.625 -12.921875 C 1.394531 -13.148438 1.28125 -13.4375 1.28125 -13.78125 C 1.28125 -14.113281 1.394531 -14.390625 1.625 -14.609375 C 1.851562 -14.828125 2.140625 -14.9375 2.484375 -14.9375 C 2.816406 -14.9375 3.097656 -14.828125 3.328125 -14.609375 C 3.566406 -14.390625 3.6875 -14.113281 3.6875 -13.78125 C 3.6875 -13.4375 3.566406 -13.148438 3.328125 -12.921875 C 3.097656 -12.691406 2.816406 -12.578125 2.484375 -12.578125 Z M 1.625 0 L 1.625 -10.296875 L 3.359375 -10.296875 L 3.359375 0 Z M 1.625 0 "/></g></g></g><g fill="#d9d9d9" fill-opacity="1"><g transform="translate(39.404973, 21.048389)"><g><path d="M 5.5 -3.234375 C 4.914062 -3.234375 4.382812 -3.3125 3.90625 -3.46875 L 2.859375 -2.484375 C 3.015625 -2.378906 3.207031 -2.285156 3.4375 -2.203125 C 3.664062 -2.128906 3.992188 -2.0625 4.421875 -2 C 4.847656 -1.9375 5.445312 -1.875 6.21875 -1.8125 C 7.601562 -1.707031 8.59375 -1.382812 9.1875 -0.84375 C 9.78125 -0.3125 10.078125 0.390625 10.078125 1.265625 C 10.078125 1.859375 9.914062 2.425781 9.59375 2.96875 C 9.269531 3.507812 8.769531 3.953125 8.09375 4.296875 C 7.425781 4.640625 6.566406 4.8125 5.515625 4.8125 C 4.585938 4.8125 3.765625 4.691406 3.046875 4.453125 C 2.328125 4.210938 1.765625 3.84375 1.359375 3.34375 C 0.960938 2.851562 0.765625 2.238281 0.765625 1.5 C 0.765625 1.101562 0.867188 0.679688 1.078125 0.234375 C 1.285156 -0.210938 1.671875 -0.632812 2.234375 -1.03125 C 1.929688 -1.15625 1.671875 -1.289062 1.453125 -1.4375 C 1.242188 -1.582031 1.050781 -1.75 0.875 -1.9375 L 0.875 -2.40625 L 2.640625 -4.15625 C 1.816406 -4.84375 1.40625 -5.753906 1.40625 -6.890625 C 1.40625 -7.566406 1.5625 -8.179688 1.875 -8.734375 C 2.195312 -9.285156 2.660156 -9.722656 3.265625 -10.046875 C 3.878906 -10.378906 4.625 -10.546875 5.5 -10.546875 C 6.09375 -10.546875 6.632812 -10.460938 7.125 -10.296875 L 10.921875 -10.296875 L 10.921875 -8.984375 L 8.984375 -8.90625 C 9.390625 -8.320312 9.59375 -7.648438 9.59375 -6.890625 C 9.59375 -6.210938 9.425781 -5.597656 9.09375 -5.046875 C 8.769531 -4.492188 8.304688 -4.050781 7.703125 -3.71875 C 7.109375 -3.394531 6.375 -3.234375 5.5 -3.234375 Z M 5.5 -4.671875 C 6.226562 -4.671875 6.8125 -4.859375 7.25 -5.234375 C 7.6875 -5.617188 7.90625 -6.171875 7.90625 -6.890625 C 7.90625 -7.597656 7.6875 -8.140625 7.25 -8.515625 C 6.8125 -8.898438 6.226562 -9.09375 5.5 -9.09375 C 4.75 -9.09375 4.15625 -8.898438 3.71875 -8.515625 C 3.289062 -8.140625 3.078125 -7.597656 3.078125 -6.890625 C 3.078125 -6.171875 3.289062 -5.617188 3.71875 -5.234375 C 4.15625 -4.859375 4.75 -4.671875 5.5 -4.671875 Z M 2.46875 1.328125 C 2.46875 2.015625 2.757812 2.523438 3.34375 2.859375 C 3.925781 3.203125 4.648438 3.375 5.515625 3.375 C 6.378906 3.375 7.066406 3.1875 7.578125 2.8125 C 8.097656 2.445312 8.359375 1.953125 8.359375 1.328125 C 8.359375 0.878906 8.175781 0.492188 7.8125 0.171875 C 7.457031 -0.148438 6.796875 -0.335938 5.828125 -0.390625 C 5.066406 -0.453125 4.410156 -0.523438 3.859375 -0.609375 C 3.296875 -0.296875 2.921875 0.03125 2.734375 0.375 C 2.554688 0.726562 2.46875 1.046875 2.46875 1.328125 Z M 2.46875 1.328125 "/></g></g></g><g fill="#d9d9d9" fill-opacity="1"><g transform="translate(50.854631, 21.048389)"><g><path d="M 1.4375 0 L 1.4375 -10.296875 L 3.015625 -10.296875 L 3.140625 -8.796875 C 3.460938 -9.347656 3.898438 -9.773438 4.453125 -10.078125 C 5.015625 -10.390625 5.640625 -10.546875 6.328125 -10.546875 C 7.140625 -10.546875 7.835938 -10.378906 8.421875 -10.046875 C 9.015625 -9.710938 9.472656 -9.207031 9.796875 -8.53125 C 10.148438 -9.15625 10.640625 -9.644531 11.265625 -10 C 11.898438 -10.363281 12.585938 -10.546875 13.328125 -10.546875 C 14.554688 -10.546875 15.535156 -10.175781 16.265625 -9.4375 C 17.003906 -8.695312 17.375 -7.554688 17.375 -6.015625 L 17.375 0 L 15.640625 0 L 15.640625 -5.828125 C 15.640625 -6.890625 15.425781 -7.691406 15 -8.234375 C 14.570312 -8.773438 13.957031 -9.046875 13.15625 -9.046875 C 12.320312 -9.046875 11.628906 -8.722656 11.078125 -8.078125 C 10.535156 -7.441406 10.265625 -6.523438 10.265625 -5.328125 L 10.265625 0 L 8.53125 0 L 8.53125 -5.828125 C 8.53125 -6.890625 8.3125 -7.691406 7.875 -8.234375 C 7.445312 -8.773438 6.832031 -9.046875 6.03125 -9.046875 C 5.21875 -9.046875 4.535156 -8.722656 3.984375 -8.078125 C 3.441406 -7.441406 3.171875 -6.523438 3.171875 -5.328125 L 3.171875 0 Z M 1.4375 0 "/></g></g></g><g fill="#d9d9d9" fill-opacity="1"><g transform="translate(69.418834, 21.048389)"><g><path d="M 6.125 0.25 C 5.15625 0.25 4.28125 0.03125 3.5 -0.40625 C 2.726562 -0.851562 2.117188 -1.476562 1.671875 -2.28125 C 1.222656 -3.09375 1 -4.046875 1 -5.140625 C 1 -6.234375 1.222656 -7.1875 1.671875 -8 C 2.128906 -8.8125 2.75 -9.4375 3.53125 -9.875 C 4.3125 -10.320312 5.1875 -10.546875 6.15625 -10.546875 C 7.125 -10.546875 7.992188 -10.320312 8.765625 -9.875 C 9.546875 -9.4375 10.160156 -8.8125 10.609375 -8 C 11.054688 -7.1875 11.28125 -6.234375 11.28125 -5.140625 C 11.28125 -4.046875 11.050781 -3.09375 10.59375 -2.28125 C 10.144531 -1.476562 9.53125 -0.851562 8.75 -0.40625 C 7.96875 0.03125 7.09375 0.25 6.125 0.25 Z M 6.125 -1.25 C 6.71875 -1.25 7.269531 -1.390625 7.78125 -1.671875 C 8.289062 -1.960938 8.703125 -2.398438 9.015625 -2.984375 C 9.335938 -3.566406 9.5 -4.285156 9.5 -5.140625 C 9.5 -6.003906 9.34375 -6.722656 9.03125 -7.296875 C 8.71875 -7.878906 8.304688 -8.316406 7.796875 -8.609375 C 7.285156 -8.898438 6.738281 -9.046875 6.15625 -9.046875 C 5.5625 -9.046875 5.007812 -8.898438 4.5 -8.609375 C 3.988281 -8.316406 3.570312 -7.878906 3.25 -7.296875 C 2.9375 -6.722656 2.78125 -6.003906 2.78125 -5.140625 C 2.78125 -4.285156 2.9375 -3.566406 3.25 -2.984375 C 3.570312 -2.398438 3.984375 -1.960938 4.484375 -1.671875 C 4.992188 -1.390625 5.539062 -1.25 6.125 -1.25 Z M 6.125 -1.25 "/></g></g></g><g fill="#d9d9d9" fill-opacity="1"><g transform="translate(81.698172, 21.048389)"><g><path d="M 1.4375 0 L 1.4375 -10.296875 L 3.015625 -10.296875 L 3.109375 -8.4375 C 3.441406 -9.09375 3.921875 -9.609375 4.546875 -9.984375 C 5.171875 -10.359375 5.875 -10.546875 6.65625 -10.546875 C 7.875 -10.546875 8.847656 -10.175781 9.578125 -9.4375 C 10.304688 -8.695312 10.671875 -7.554688 10.671875 -6.015625 L 10.671875 0 L 8.921875 0 L 8.921875 -5.828125 C 8.921875 -7.972656 8.035156 -9.046875 6.265625 -9.046875 C 5.378906 -9.046875 4.640625 -8.722656 4.046875 -8.078125 C 3.460938 -7.441406 3.171875 -6.523438 3.171875 -5.328125 L 3.171875 0 Z M 1.4375 0 "/></g></g></g><g fill="#d9d9d9" fill-opacity="1"><g transform="translate(93.562664, 21.048389)"><g><path d="M 6.0625 0.25 C 5.070312 0.25 4.195312 0.0234375 3.4375 -0.421875 C 2.675781 -0.867188 2.078125 -1.492188 1.640625 -2.296875 C 1.210938 -3.097656 1 -4.046875 1 -5.140625 C 1 -6.222656 1.210938 -7.164062 1.640625 -7.96875 C 2.066406 -8.78125 2.660156 -9.410156 3.421875 -9.859375 C 4.191406 -10.316406 5.082031 -10.546875 6.09375 -10.546875 C 7.09375 -10.546875 7.953125 -10.316406 8.671875 -9.859375 C 9.398438 -9.410156 9.957031 -8.820312 10.34375 -8.09375 C 10.738281 -7.363281 10.9375 -6.578125 10.9375 -5.734375 C 10.9375 -5.578125 10.929688 -5.421875 10.921875 -5.265625 C 10.921875 -5.117188 10.921875 -4.945312 10.921875 -4.75 L 2.71875 -4.75 C 2.757812 -3.957031 2.941406 -3.300781 3.265625 -2.78125 C 3.585938 -2.269531 3.992188 -1.878906 4.484375 -1.609375 C 4.984375 -1.347656 5.507812 -1.21875 6.0625 -1.21875 C 6.78125 -1.21875 7.378906 -1.382812 7.859375 -1.71875 C 8.347656 -2.050781 8.703125 -2.503906 8.921875 -3.078125 L 10.640625 -3.078125 C 10.367188 -2.117188 9.84375 -1.320312 9.0625 -0.6875 C 8.28125 -0.0625 7.28125 0.25 6.0625 0.25 Z M 6.0625 -9.0625 C 5.226562 -9.0625 4.488281 -8.804688 3.84375 -8.296875 C 3.207031 -7.796875 2.835938 -7.0625 2.734375 -6.09375 L 9.21875 -6.09375 C 9.175781 -7.019531 8.851562 -7.742188 8.25 -8.265625 C 7.65625 -8.796875 6.925781 -9.0625 6.0625 -9.0625 Z M 6.0625 -9.0625 "/></g></g></g><g fill="#d9d9d9" fill-opacity="1"><g transform="translate(105.364937, 21.048389)"><g><path d="M 2.546875 4.5625 L 5.109375 -1 L 4.5 -1 L 0.421875 -10.296875 L 2.296875 -10.296875 L 5.703125 -2.28125 L 9.3125 -10.296875 L 11.125 -10.296875 L 4.375 4.5625 Z M 2.546875 4.5625 "/></g></g></g></svg>